<svg fill="#2cde14" height="800" width="800" xmlns="http://www.w3.org/2000/svg" viewBox="0 0 281.858 281.858">
  <path
    d="M152.429 113.113a3.077 3.077 0 0 0-3.077-3.077h-18.846a3.077 3.077 0 0 0-3.077 3.077v13.526h-13.526a3.077 3.077 0 0 0-3.077 3.077v18.846a3.077 3.077 0 0 0 3.077 3.077h13.526v13.525a3.077 3.077 0 0 0 3.077 3.077h18.846a3.077 3.077 0 0 0 3.077-3.077v-13.525h13.525a3.077 3.077 0 0 0 3.077-3.077v-18.846a3.077 3.077 0 0 0-3.077-3.077h-13.525z" />
  <path
    d="M274.673 13.952a12.5 12.5 0 0 0-19.297-11.888c-10.42 6.872-35.07 19.868-53.782 19.868-24.216 0-35.566-6.189-44.688-11.161-4.053-2.21-7.882-4.297-12.265-5.66a12.5 12.5 0 0 0-7.426 0c-4.383 1.363-8.212 3.45-12.265 5.66-9.121 4.973-20.472 11.161-44.687 11.161-18.712 0-43.362-12.996-53.782-19.868A12.5 12.5 0 0 0 7.184 13.952l14.963 127.921a165.65 165.65 0 0 0 102.507 134.391l11.591 4.684a12.52 12.52 0 0 0 9.368 0l11.59-4.684a165.65 165.65 0 0 0 102.508-134.391zM88.309 138.116c0-28.464 23.156-51.62 51.62-51.62s51.62 23.156 51.62 51.62-23.156 51.62-51.62 51.62-51.62-23.156-51.62-51.62m146.571.853a140.66 140.66 0 0 1-87.043 114.115l-6.908 2.792v-41.165c41.787-.54 75.62-34.682 75.62-76.595s-33.833-76.055-75.62-76.595V30.583c1.23.623 2.575 1.355 4.011 2.139 10.38 5.659 26.066 14.211 56.654 14.211 15.831 0 32.553-5.888 45.438-11.857z" />
</svg>