<svg fill="#eadf0c" width="800" height="800" viewBox="0 0 32 32" xmlns="http://www.w3.org/2000/svg">
    <path
        d="m19.757 22.786-.582 7.814h9.144l-1.791-5.793h-2.456V13.035l3.816-4.731V1.37h-4.02v3.27h-2.447V1.37h-4.064v3.27h-2.403V1.37H10.89v3.27H8.487V1.37h-4.02v6.934l3.816 4.731v11.772H5.827L4.036 30.6h9.428l-.515-7.814H10.47c-.435-2.316-.343-4.752.34-6.637l.056-.149v-.001a7 7 0 0 1 .497-1.032l.013-.022.065-.105.022-.035.062-.094.028-.042.06-.086.033-.046.06-.08.037-.048.059-.074.04-.049.059-.07.043-.05.059-.065.047-.05.06-.061.05-.05.06-.058.052-.049.061-.054.055-.047.062-.051.058-.046.062-.048.061-.045.063-.044.064-.043.063-.041.066-.041.064-.038.069-.039.065-.035.072-.036.065-.032.075-.034.065-.029.079-.032.064-.025.083-.03.064-.022.088-.027.062-.019.096-.025.058-.015q.054-.013.11-.024l.047-.01q.08-.015.161-.028a4.2 4.2 0 0 1-.681-1.258 4.8 4.8 0 0 1-.255-1.551c0-2.174 1.384-3.929 3.083-3.929.106 0 .216-.016.32 0 1.552.202 2.764 1.89 2.764 3.929 0 .553-.093 1.076-.258 1.551a4.4 4.4 0 0 1-.404.855l-.003.006q-.045.072-.092.142l-.008.012-.098.136-.008.011a4 4 0 0 1-.111.141l.026.005.116.024.056.014.085.021a5 5 0 0 1 .201.062l.074.025a2 2 0 0 1 .135.051l.062.025.07.031.061.027.07.034.059.029.07.037.056.031.075.044.049.029q.06.036.117.075l.052.036.067.046.056.041.06.045.057.045.057.046.057.048.054.047.056.05.052.048.056.053.05.05.055.056.048.051.055.059.045.051.055.063.035.042q.06.072.119.146l.033.042.054.073.038.051.052.073.038.054.05.075.037.056.049.077.035.057.048.079.034.057.047.082.031.057.047.086.028.054.047.092.019.039q.061.124.118.25c.845 1.883 1.074 4.422.554 6.93h-2.594z" />
</svg>