<svg fill="#1a4ce0" width="800" height="800" viewBox="0 0 32 32" xmlns="http://www.w3.org/2000/svg">
    <path
        d="M5.99 3.993h19.967zm10.982 10.982v14.974c3.661-.013 7.321-.165 10.982-1.995L25.957 3.993C15.973 0 15.973 0 5.99 3.993L3.993 27.954c3.661 1.83 7.321 1.983 10.982 1.995V14.975H6.988V11.98h17.971v2.995zm2.995 7.987h-.998v-.998h.998zm0-1.997h-.998v-.998h.998zm0-1.996h-.998v-.998h.998zm1.997 3.993h-.998v-.998h.998zm0-1.997h-.998v-.998h.998zm0-1.996h-.998v-.998h.998zm1.997 3.993h-.998v-.998h.998zm0-1.997h-.998v-.998h.998zm0-1.996h-.998v-.998h.998zM11.98 17.97h.998v.998h-.998zm0 1.997h.998v.998h-.998zm0 1.997h.998v.998h-.998zM9.984 17.97h.998v.998h-.998zm0 1.997h.998v.998h-.998zm0 1.997h.998v.998h-.998zM7.987 17.97h.998v.998h-.998zm0 1.997h.998v.998h-.998zm0 1.997h.998v.998h-.998zm1.997-10.982a.498.498 0 1 1-.001-.997.498.498 0 0 1 .001.997m2.995 0a.498.498 0 1 1-.001-.997.498.498 0 0 1 .001.997m2.995 0a.498.498 0 1 1-.001-.997.498.498 0 0 1 .001.997m2.995 0a.498.498 0 1 1-.001-.997.498.498 0 0 1 .001.997m2.995 0a.498.498 0 1 1-.001-.997.498.498 0 0 1 .001.997" />
</svg>